<?xml version="1.0" encoding="utf-8"?>
<!-- Generator: Adobe Illustrator 27.2.0, SVG Export Plug-In . SVG Version: 6.00 Build 0)  -->
<svg version="1.1" id="katman_1" xmlns="http://www.w3.org/2000/svg" xmlns:xlink="http://www.w3.org/1999/xlink" x="0px" y="0px"
	 width="478px" height="480px" viewBox="0 0 478 480" style="enable-background:new 0 0 478 480;" xml:space="preserve">
<style type="text/css">
	.st0{fill:none;}
	.st1{fill:#1C1C1C;}
	.st2{fill:#FFFFFF;}
</style>
<rect x="-48.73" y="-80.25" class="st0" width="581.33" height="436"/>
<circle class="st1" cx="239" cy="240" r="235.75"/>
<g>
	<path class="st2" d="M184.48,319h-33.5V188.88h-42.9V161h119.31v27.88h-42.9V319z"/>
	<path class="st2" d="M285.2,258.37V319h-33.5V161h46.04c21.47,0,37.36,3.91,47.66,11.73c10.3,7.82,15.45,19.69,15.45,35.61
		c0,9.29-2.56,17.56-7.67,24.8c-5.12,7.24-12.36,12.91-21.72,17.02c23.78,35.52,39.27,58.47,46.47,68.84h-37.18l-37.72-60.63H285.2z
		 M285.2,231.14h10.81c10.59,0,18.41-1.76,23.45-5.3c5.04-3.53,7.57-9.08,7.57-16.64c0-7.49-2.58-12.82-7.73-15.99
		c-5.15-3.17-13.13-4.76-23.94-4.76H285.2V231.14z"/>
</g>
</svg>
