<?xml version="1.0" encoding="utf-8"?>
<!-- Generator: Adobe Illustrator 27.2.0, SVG Export Plug-In . SVG Version: 6.00 Build 0)  -->
<svg version="1.1" id="katman_1" xmlns="http://www.w3.org/2000/svg" xmlns:xlink="http://www.w3.org/1999/xlink" x="0px" y="0px"
	 width="640px" height="480px" viewBox="0 0 640 480" style="enable-background:new 0 0 640 480;" xml:space="preserve">
<style type="text/css">
	.st0{fill:#1C1C1C;}
	.st1{fill:none;}
	.st2{fill:#FFFFFF;}
</style>
<rect class="st0" width="640" height="480"/>
<rect x="32.27" y="-80.25" class="st1" width="581.33" height="436"/>
<g>
	<path class="st2" d="M232.63,362h-51.74V161.06h-66.26V118h184.25v43.06h-66.26V362z"/>
	<path class="st2" d="M388.17,268.37V362h-51.74V118h71.1c33.15,0,57.69,6.04,73.6,18.11c15.91,12.07,23.87,30.4,23.87,54.99
		c0,14.35-3.95,27.12-11.85,38.3c-7.9,11.18-19.08,19.94-33.55,26.29c36.72,54.85,60.64,90.29,71.76,106.31h-57.41l-58.25-93.63
		H388.17z M388.17,226.31h16.69c16.36,0,28.43-2.73,36.22-8.18c7.79-5.45,11.68-14.02,11.68-25.7c0-11.57-3.98-19.8-11.93-24.7
		c-7.96-4.89-20.28-7.34-36.97-7.34h-15.69V226.31z"/>
</g>
</svg>
