<?xml version="1.0" encoding="utf-8"?>
<!-- Generator: Adobe Illustrator 27.2.0, SVG Export Plug-In . SVG Version: 6.00 Build 0)  -->
<svg version="1.1" id="katman_1" xmlns="http://www.w3.org/2000/svg" xmlns:xlink="http://www.w3.org/1999/xlink" x="0px" y="0px"
	 width="300px" height="300px" viewBox="0 0 300 300" style="enable-background:new 0 0 300 300;" xml:space="preserve">
<style type="text/css">
	.st0{fill:#191919;}
	.st1{fill:#F5F5F5;}
</style>
<circle class="st0" cx="150" cy="150" r="145"/>
<g>
	<path class="st1" d="M119.93,196.34H99.86v-77.97H74.15v-16.71h71.49v16.71h-25.71V196.34z"/>
	<path class="st1" d="M180.29,160.01v36.33h-20.07v-94.67h27.59c12.86,0,22.38,2.34,28.56,7.03c6.17,4.68,9.26,11.8,9.26,21.34
		c0,5.57-1.53,10.52-4.6,14.86c-3.07,4.34-7.4,7.74-13.02,10.2c14.25,21.28,23.53,35.03,27.84,41.25h-22.28l-22.6-36.33H180.29z
		 M180.29,143.69h6.48c6.35,0,11.03-1.06,14.05-3.17c3.02-2.11,4.53-5.44,4.53-9.97c0-4.49-1.54-7.68-4.63-9.58
		c-3.09-1.9-7.87-2.85-14.34-2.85h-6.09V143.69z"/>
</g>
</svg>
