<?xml version="1.0" encoding="utf-8"?>
<!-- Generator: Adobe Illustrator 27.2.0, SVG Export Plug-In . SVG Version: 6.00 Build 0)  -->
<svg version="1.1" id="katman_1" xmlns="http://www.w3.org/2000/svg" xmlns:xlink="http://www.w3.org/1999/xlink" x="0px" y="0px"
	 width="400px" height="300px" viewBox="0 0 400 300" style="enable-background:new 0 0 400 300;" xml:space="preserve">
<g>
	<path d="M134.16,238.88H96.47V92.49H48.2V61.12h134.23v31.37h-48.27V238.88z"/>
	<path d="M247.48,170.67v68.21h-37.69V61.12h51.79c24.15,0,42.03,4.4,53.62,13.19c11.59,8.8,17.39,22.15,17.39,40.06
		c0,10.46-2.88,19.76-8.63,27.9c-5.76,8.15-13.9,14.53-24.44,19.15c26.75,39.96,44.17,65.78,52.28,77.45h-41.82l-42.43-68.21H247.48
		z M247.48,140.03h12.16c11.92,0,20.71-1.99,26.38-5.96c5.67-3.97,8.51-10.21,8.51-18.72c0-8.43-2.9-14.43-8.69-17.99
		c-5.8-3.57-14.77-5.35-26.93-5.35h-11.43V140.03z"/>
</g>
</svg>
