<?xml version="1.0" encoding="utf-8"?>
<!-- Generator: Adobe Illustrator 27.2.0, SVG Export Plug-In . SVG Version: 6.00 Build 0)  -->
<svg version="1.1" id="katman_1" xmlns="http://www.w3.org/2000/svg" xmlns:xlink="http://www.w3.org/1999/xlink" x="0px" y="0px"
	 width="300px" height="300px" viewBox="0 0 300 300" style="enable-background:new 0 0 300 300;" xml:space="preserve">
<style type="text/css">
	.st0{fill:#191919;}
	.st1{fill:#F5F5F5;}
</style>
<circle class="st0" cx="150" cy="150" r="145"/>
<g>
	<path class="st1" d="M113.56,204.94H89.84V112.8H59.46V93.06h84.48v19.74h-30.38V204.94z"/>
	<path class="st1" d="M184.88,162.01v42.93h-23.72V93.06h32.6c15.2,0,26.45,2.77,33.75,8.3c7.3,5.54,10.94,13.94,10.94,25.21
		c0,6.58-1.81,12.43-5.43,17.56c-3.62,5.13-8.75,9.14-15.38,12.05c16.84,25.15,27.8,41.4,32.9,48.75h-26.32l-26.71-42.93H184.88z
		 M184.88,142.73h7.65c7.5,0,13.03-1.25,16.61-3.75c3.57-2.5,5.36-6.43,5.36-11.78c0-5.31-1.82-9.08-5.47-11.33
		c-3.65-2.24-9.3-3.37-16.95-3.37h-7.19V142.73z"/>
</g>
</svg>
