<?xml version="1.0" encoding="utf-8"?>
<!-- Generator: Adobe Illustrator 27.2.0, SVG Export Plug-In . SVG Version: 6.00 Build 0)  -->
<svg version="1.1" id="katman_1" xmlns="http://www.w3.org/2000/svg" xmlns:xlink="http://www.w3.org/1999/xlink" x="0px" y="0px"
	 width="400px" height="300px" viewBox="0 0 400 300" style="enable-background:new 0 0 400 300;" xml:space="preserve">
<g>
	<path d="M134.96,116.37v93.16h-32.15v-93.16H52.28V90.46h133.29v25.91H134.96z"/>
	<path d="M238.95,209.54H206.8V90.46h80.6c8.67,0,16.02,0.9,22.06,2.69c6.04,1.79,10.95,4.33,14.73,7.63
		c3.78,3.29,6.53,7.27,8.23,11.92c1.7,4.65,2.56,9.84,2.56,15.56c0,5.03-0.71,9.42-2.12,13.17c-1.42,3.76-3.32,6.98-5.72,9.66
		c-2.4,2.69-5.19,4.95-8.36,6.8c-3.18,1.85-6.53,3.38-10.05,4.59l39,47.06H310.1l-36.05-43.85h-35.1V209.54z M302.48,128.07
		c0-2.31-0.3-4.27-0.91-5.89c-0.61-1.62-1.66-2.93-3.16-3.94c-1.5-1.01-3.51-1.75-6.02-2.21c-2.51-0.46-5.65-0.69-9.4-0.69h-44.03
		v25.48h44.03c3.75,0,6.89-0.23,9.4-0.69c2.51-0.46,4.52-1.2,6.02-2.21c1.5-1.01,2.56-2.33,3.16-3.94
		C302.18,132.35,302.48,130.39,302.48,128.07z"/>
</g>
</svg>
