<?xml version="1.0" encoding="utf-8"?>
<!-- Generator: Adobe Illustrator 27.2.0, SVG Export Plug-In . SVG Version: 6.00 Build 0)  -->
<svg version="1.1" id="katman_1" xmlns="http://www.w3.org/2000/svg" xmlns:xlink="http://www.w3.org/1999/xlink" x="0px" y="0px"
	 width="478px" height="480px" viewBox="0 0 478 480" style="enable-background:new 0 0 478 480;" xml:space="preserve">
<style type="text/css">
	.st0{fill:none;}
	.st1{fill:#1C1C1C;}
	.st2{fill:#FFFFFF;}
</style>
<rect x="-48.73" y="-80.25" class="st0" width="581.33" height="436"/>
<circle class="st1" cx="239" cy="240" r="235.75"/>
<g>
	<path class="st2" d="M174.31,332.42h-40.47V175.26H82.03v-33.68h144.11v33.68h-51.82V332.42z"/>
	<path class="st2" d="M295.97,259.19v73.23h-40.47V141.58h55.61c25.93,0,45.12,4.72,57.57,14.16c12.44,9.44,18.67,23.78,18.67,43.01
		c0,11.23-3.09,21.21-9.27,29.96c-6.18,8.75-14.93,15.6-26.24,20.56c28.72,42.9,47.43,70.62,56.13,83.15h-44.9l-45.56-73.23H295.97z
		 M295.97,226.3h13.05c12.79,0,22.23-2.13,28.33-6.4c6.09-4.26,9.14-10.97,9.14-20.1c0-9.05-3.11-15.49-9.33-19.32
		c-6.22-3.83-15.86-5.74-28.91-5.74h-12.27V226.3z"/>
</g>
</svg>
